<svg width="20" height="20" viewBox="0 0 28 28" fill="none" xmlns="http://www.w3.org/2000/svg">
<path
    d="
      M 0, 14
      a 14,14 0 1,1 28,0
      14,14 0 1,1 -28,0
	  M19.9049 9.96965C17.5531 6.80958 13.1067 6.17019 9.9587 8.51873C6.81071 10.8796 6.17376 15.343 8.51332 18.5031C10.3629 20.9869 13.4987 21.9091 16.2914 21.0606C16.3037 21.0606 16.3037 21.0606 16.3159 21.0606C17.4061 20.7041 19.0597 22.1181 19.7089 21.6263C20.3581 21.1467 19.4884 19.1548 20.1254 18.208L20.1376 18.1957C21.7422 15.7365 21.7422 12.4534 19.9049 9.96965ZM18.876 15.9947C18.141 17.9375 16.2669 19.2408 14.2091 19.2408C12.1513 19.2408 10.2772 17.9375 9.54223 15.9947C9.44424 15.7365 9.57898 15.4537 9.82396 15.3676C10.0812 15.2692 10.3629 15.4045 10.4609 15.6504C11.0489 17.212 12.5555 18.2572 14.2091 18.2572C15.8627 18.2572 17.3693 17.212 17.9573 15.6504C18.0553 15.3922 18.337 15.2692 18.5942 15.3676C18.8392 15.466 18.9739 15.7365 18.876 15.9947Z
    "
	fill="#FFFFFF"
/>
</svg>
