<svg width="351" height="250" viewBox="0 0 351 250" fill="none" xmlns="http://www.w3.org/2000/svg">
<path d="M197.627 237.884C191.617 239.781 185.342 235.913 183.624 229.271L174.641 194.162C172.924 187.52 176.425 180.586 182.436 178.688C188.446 176.791 194.721 180.659 196.439 187.301L205.422 222.41C207.139 229.052 203.638 235.986 197.627 237.884Z" fill="#93CBEA"/>
<path d="M184.813 237.592C180.322 232.774 180.256 224.818 184.681 219.928L207.799 193.87C212.159 188.907 219.359 188.834 223.784 193.724C228.276 198.542 228.342 206.498 223.916 211.388L200.798 237.446C196.439 242.336 189.305 242.409 184.813 237.592Z" fill="#93CBEA"/>
<path d="M228.016 202.766C232.57 199.414 233.803 192.617 230.77 187.585C227.737 182.552 221.586 181.189 217.032 184.541C212.478 187.893 211.245 194.69 214.278 199.722C217.311 204.755 223.462 206.118 228.016 202.766Z" fill="#FFB69E"/>
<path d="M215.924 192.045C214.537 192.41 213.15 191.535 212.754 190.002L211.895 186.206C211.565 184.673 212.357 183.141 213.744 182.703C215.131 182.338 216.519 183.214 216.915 184.746L217.774 188.542C218.104 190.148 217.245 191.681 215.924 192.045Z" fill="#FFB69E"/>
<path d="M225.832 179.053L222.331 188.907C221.803 190.44 220.217 191.17 218.83 190.586C217.443 190.002 216.783 188.25 217.311 186.717L220.812 176.863C221.34 175.331 222.925 174.601 224.313 175.185C225.7 175.841 226.36 177.593 225.832 179.053Z" fill="#FFB69E"/>
<path d="M232.041 181.17L227.813 190.659C227.153 192.118 225.568 192.702 224.246 191.973C222.925 191.243 222.397 189.491 223.058 188.031L227.285 178.542C227.945 177.082 229.531 176.499 230.852 177.228C232.173 177.885 232.701 179.71 232.041 181.17Z" fill="#FFB69E"/>
<path d="M236.664 186.425L230.719 194.746C229.795 196.06 228.143 196.279 226.955 195.257C225.766 194.235 225.567 192.41 226.492 191.097L232.437 182.776C233.362 181.462 235.013 181.243 236.202 182.265C237.391 183.287 237.589 185.111 236.664 186.425Z" fill="#FFB69E"/>
<path d="M173.122 166.426L169.291 166.28C166.715 166.134 164.667 163.725 164.8 160.879L165.592 138.251L178.803 138.835L178.01 161.462C177.878 164.309 175.698 166.499 173.122 166.426Z" fill="#FFB69E"/>
<path d="M178.803 138.032L165.592 137.448L165.394 143.215C165.196 148.835 169.357 153.798 174.443 153.36C174.773 153.36 175.104 153.287 175.368 153.214C176.425 152.996 177.415 152.558 178.34 152.047L178.803 138.032Z" fill="#D15E79"/>
<path d="M185.408 115.624C188.843 122.485 184.879 131.317 176.557 135.332C168.234 139.346 158.789 137.011 155.354 130.149C151.92 123.288 155.883 114.456 164.205 110.442C172.528 106.5 182.039 108.763 185.408 115.624Z" fill="#1B2A67"/>
<path d="M194.589 117.741C196.835 123.142 192.475 129.493 184.747 131.974C177.019 134.456 168.961 132.12 166.715 126.719C164.469 121.318 168.829 114.967 176.557 112.486C184.285 110.004 192.343 112.34 194.589 117.741Z" fill="#1B2A67"/>
<path d="M181.973 104.238C186.531 107.376 186.002 115.405 180.784 122.12C175.566 128.836 167.64 131.755 163.082 128.617C158.525 125.478 159.053 117.449 164.271 110.734C169.489 104.019 177.415 101.099 181.973 104.238Z" fill="#1B2A67"/>
<path d="M186.465 134.383C187.786 142.412 183.955 149.93 177.944 151.098C171.933 152.265 165.988 146.718 164.733 138.616L163.677 132.266C162.356 124.237 166.187 116.719 172.197 115.551C178.208 114.383 184.153 119.931 185.408 128.033L186.465 134.383Z" fill="#FFB69E"/>
<path d="M173.651 114.675C170.348 111.318 164.536 112.924 160.704 118.252C156.873 123.58 156.477 130.587 159.846 133.872C163.148 137.23 168.961 135.624 172.792 130.295C176.557 124.967 176.953 117.96 173.651 114.675Z" fill="#1B2A67"/>
<path d="M175.831 132.631C175.632 132.631 175.434 132.558 175.302 132.339C175.104 132.047 175.17 131.609 175.434 131.39C175.5 131.317 177.416 129.857 179.463 131.171C179.728 131.39 179.86 131.755 179.662 132.12C179.463 132.412 179.133 132.558 178.803 132.339C177.416 131.463 176.095 132.412 176.095 132.485C176.029 132.558 175.897 132.631 175.831 132.631Z" fill="#86294E"/>
<path d="M186.267 132.631C186.135 132.631 186.003 132.558 185.937 132.485C185.87 132.412 184.549 131.463 183.228 132.339C182.964 132.558 182.568 132.412 182.37 132.12C182.172 131.828 182.304 131.39 182.568 131.171C184.615 129.857 186.531 131.317 186.597 131.39C186.861 131.609 186.927 132.047 186.729 132.339C186.597 132.485 186.399 132.631 186.267 132.631Z" fill="#86294E"/>
<path d="M178.565 134.444C178.579 134.042 178.295 133.702 177.931 133.686C177.566 133.671 177.259 133.984 177.245 134.387C177.23 134.79 177.514 135.129 177.879 135.145C178.243 135.161 178.55 134.847 178.565 134.444Z" fill="#86294E"/>
<path d="M184.637 134.673C184.652 134.271 184.368 133.931 184.003 133.915C183.639 133.9 183.332 134.213 183.317 134.616C183.303 135.019 183.587 135.358 183.951 135.374C184.316 135.39 184.623 135.076 184.637 134.673Z" fill="#86294E"/>
<path d="M186.069 139.492C186.003 139.492 185.937 139.492 185.871 139.492C184.549 139.419 183.295 138.835 182.436 137.74C181.511 136.646 181.049 135.259 181.115 133.799C181.181 132.339 181.709 130.952 182.7 130.003C183.691 128.982 184.946 128.471 186.267 128.544C187.588 128.617 188.843 129.201 189.702 130.295C190.626 131.39 191.089 132.777 191.023 134.237C190.957 135.697 190.428 137.083 189.437 138.032C188.513 138.981 187.324 139.492 186.069 139.492ZM186.069 129.492C185.012 129.492 184.021 129.93 183.294 130.733C182.502 131.536 182.04 132.704 181.973 133.872C181.907 135.113 182.304 136.281 183.096 137.156C183.823 138.032 184.88 138.543 185.937 138.616C187.059 138.616 188.116 138.251 188.909 137.375C189.702 136.573 190.164 135.405 190.23 134.237C190.296 132.996 189.9 131.828 189.107 130.952C188.38 130.076 187.324 129.565 186.267 129.492C186.135 129.492 186.069 129.492 186.069 129.492Z" fill="#FFD2D4"/>
<path d="M175.368 139.711C175.302 139.711 175.236 139.711 175.17 139.711C172.132 139.565 169.688 136.719 169.82 133.288C169.886 131.609 170.481 130.149 171.603 128.982C172.726 127.887 174.113 127.303 175.633 127.376C177.086 127.449 178.473 128.106 179.53 129.346C180.586 130.587 181.049 132.12 180.983 133.799C180.917 135.478 180.322 136.938 179.199 138.105C178.143 139.127 176.821 139.711 175.368 139.711ZM175.368 128.471C174.179 128.471 173.123 128.982 172.264 129.857C171.339 130.806 170.811 132.047 170.811 133.434C170.679 136.281 172.726 138.616 175.236 138.762C176.425 138.835 177.68 138.324 178.539 137.375C179.464 136.427 179.992 135.186 179.992 133.799C180.058 132.412 179.596 131.098 178.737 130.149C177.878 129.128 176.755 128.544 175.5 128.544C175.5 128.471 175.434 128.471 175.368 128.471Z" fill="#FFD2D4"/>
<path d="M179.992 134.529L182.04 134.602C182.304 134.602 182.502 134.383 182.502 134.164C182.502 133.872 182.304 133.653 182.106 133.653L180.058 133.58C179.794 133.58 179.596 133.799 179.596 134.018C179.596 134.31 179.794 134.529 179.992 134.529Z" fill="#FFD2D4"/>
<path d="M184.087 137.74C184.021 138.543 183.162 139.273 182.238 139.346C181.247 139.419 180.52 138.908 180.586 138.105C180.652 137.302 181.511 136.572 182.436 136.499C183.427 136.354 184.153 136.937 184.087 137.74Z" fill="#86294E"/>
<path d="M183.691 142.048C183.625 143.872 182.105 145.332 180.322 145.259C178.539 145.186 177.482 143.216 177.548 141.391C179.662 141.099 181.709 141.318 183.691 142.048Z" fill="#86294E"/>
<path d="M180.586 143.142C179.133 142.923 178.275 142.412 178.209 141.244C179.992 141.171 181.709 141.317 183.427 141.901C183.162 142.996 181.974 143.361 180.586 143.142Z" fill="#FFD2D4"/>
<path d="M176.359 145.988H172.792C171.339 145.988 169.952 145.404 168.895 144.309L166.649 142.12C166.451 141.974 166.451 141.609 166.649 141.463C166.781 141.244 167.112 141.244 167.244 141.463L169.49 143.653C170.414 144.528 171.537 145.039 172.792 145.039H176.359C176.623 145.039 176.821 145.258 176.821 145.55C176.755 145.769 176.557 145.988 176.359 145.988Z" fill="#201028"/>
<path d="M176.359 146.426H174.906C174.444 146.426 174.047 145.988 174.047 145.477C174.047 144.967 174.444 144.529 174.906 144.529H176.359C176.821 144.529 177.218 144.967 177.218 145.477C177.218 145.988 176.821 146.426 176.359 146.426Z" fill="#FFD2D4"/>
<path d="M171.959 137.483C172.115 133.092 169.021 129.393 165.048 129.22C161.075 129.048 157.727 132.467 157.571 136.857C157.415 141.248 160.509 144.947 164.482 145.119C168.455 145.292 171.803 141.873 171.959 137.483Z" fill="#009B62"/>
<path d="M169.294 137.367C169.427 133.621 167.023 130.475 163.925 130.34C160.827 130.206 158.207 133.133 158.074 136.879C157.94 140.625 160.344 143.771 163.442 143.906C166.541 144.04 169.16 141.113 169.294 137.367Z" fill="#02B875"/>
<path d="M164.583 137.162C164.637 135.632 163.824 134.354 162.767 134.308C161.71 134.262 160.809 135.465 160.755 136.996C160.7 138.527 161.513 139.805 162.57 139.851C163.627 139.896 164.528 138.693 164.583 137.162Z" fill="#E0EEF7"/>
<path d="M182.237 248.613L147.692 249.708C141.946 249.489 137.454 244.088 137.652 237.738L139.832 173.798C139.964 170.44 141.946 167.521 144.852 166.572L170.612 157.521L191.221 168.396C193.797 169.783 195.382 172.703 195.316 175.842L193.136 237.519C192.806 243.942 187.984 248.832 182.237 248.613Z" fill="#93CBEA"/>
<path d="M195.25 175.841C195.382 182.484 195.316 189.199 195.184 195.841C195.118 202.483 194.919 209.125 194.655 215.767C194.391 222.409 194.127 229.052 193.73 235.694C193.664 237.3 193.598 239.124 193.004 240.803C192.476 242.482 191.617 244.015 190.56 245.183C188.314 247.591 185.21 248.978 182.171 248.613C185.21 248.54 188.05 247.08 189.966 244.599C190.89 243.431 191.617 241.971 192.013 240.438C192.409 238.905 192.409 237.373 192.409 235.694C192.475 229.052 192.674 222.409 192.938 215.767C193.202 209.125 193.466 202.483 193.863 195.841C194.259 189.126 194.655 182.484 195.25 175.841Z" fill="#6EACCE"/>
<path d="M180.058 169.564L161.431 168.25L162.158 155.988C162.224 154.455 163.413 153.287 164.8 153.433L178.472 154.382C179.86 154.455 180.916 155.769 180.784 157.302L180.058 169.564Z" fill="#93CBEA"/>
<path d="M124.442 229.855C118.695 227.227 115.921 219.855 118.299 213.505L130.981 179.856C133.359 173.506 140.03 170.44 145.777 173.068C151.523 175.695 154.297 183.068 151.92 189.418L139.238 223.066C136.86 229.49 130.254 232.555 124.442 229.855Z" fill="#93CBEA"/>
<path d="M145.777 173.068C147.824 173.798 149.674 175.258 150.995 177.155C152.316 179.053 153.175 181.462 153.373 183.943C153.703 186.425 152.977 188.98 152.118 191.097L149.74 197.593C148.089 201.899 146.437 206.206 144.654 210.439L142.012 216.789C141.087 218.906 140.162 221.023 139.172 223.066C139.832 220.804 140.559 218.614 141.219 216.424L143.399 209.855C144.852 205.476 146.503 201.169 148.089 196.79L150.599 190.367C150.995 189.272 151.457 188.323 151.655 187.228C151.92 186.206 152.052 185.111 151.986 183.943C152.052 179.564 149.608 175.258 145.777 173.068Z" fill="#6EACCE"/>
<path d="M177.152 212.264L171.405 211.826C169.225 211.68 167.574 209.636 167.706 207.227L167.904 204.381C168.036 201.972 169.886 200.147 172.066 200.293L177.812 200.731L177.152 212.264ZM171.934 203.14C171.207 203.067 170.546 203.724 170.48 204.527L170.282 207.373C170.216 208.176 170.811 208.906 171.537 208.979L174.708 209.198L175.038 203.359L171.934 203.14Z" fill="#86294E"/>
<path d="M182.766 221.388L177.746 221.023C174.708 220.804 172.396 217.884 172.594 214.599L173.651 196.863C173.783 194.892 189.701 195.987 189.635 198.031L188.578 215.767C188.446 219.052 185.804 221.607 182.766 221.388Z" fill="#D15E79"/>
<path d="M188.045 198.499C188.087 197.775 185.2 196.98 181.596 196.723C177.992 196.466 175.036 196.845 174.994 197.569C174.952 198.293 177.839 199.088 181.443 199.345C185.047 199.602 188.002 199.223 188.045 198.499Z" fill="#86294E"/>
<path d="M118.167 218.614C118.233 211.68 123.385 206.206 129.66 206.279L162.686 206.862C168.961 206.935 173.915 212.629 173.849 219.563C173.783 226.497 168.631 231.971 162.356 231.898L129.33 231.314C123.055 231.241 118.101 225.548 118.167 218.614Z" fill="#93CBEA"/>
<path d="M129.66 206.279C133.887 205.987 138.115 205.841 142.342 205.768C146.569 205.695 150.797 205.695 155.024 205.768L161.365 205.914C163.413 205.914 165.923 206.279 167.838 207.519C169.82 208.687 171.471 210.512 172.528 212.629C173.585 214.745 174.047 217.227 173.783 219.563C173.519 214.891 170.876 210.658 167.244 208.833C166.319 208.395 165.394 208.103 164.403 207.884C163.413 207.665 162.422 207.738 161.365 207.738L155.024 207.665C150.797 207.592 146.569 207.446 142.342 207.227C138.115 207.008 133.887 206.789 129.66 206.279Z" fill="#6EACCE"/>
<path d="M176.286 227.761C181.734 227.201 185.74 221.866 185.233 215.845C184.726 209.824 179.898 205.398 174.45 205.958C169.002 206.518 164.996 211.853 165.503 217.874C166.01 223.894 170.837 228.321 176.286 227.761Z" fill="#FFB69E"/>
<path d="M170.216 211.607C168.961 211.169 168.301 209.636 168.763 208.249L169.82 204.892C170.216 203.505 171.603 202.775 172.858 203.286C174.113 203.724 174.774 205.257 174.311 206.643L173.255 210.001C172.792 211.388 171.471 212.118 170.216 211.607Z" fill="#FFB69E"/>
<path d="M189.239 213.067L180.454 213.942C179.067 214.088 177.878 212.994 177.746 211.461C177.614 209.928 178.605 208.614 179.992 208.468L188.777 207.592C190.164 207.446 191.353 208.541 191.485 210.074C191.551 211.534 190.56 212.921 189.239 213.067Z" fill="#FFB69E"/>
<path d="M187.324 221.972L178.473 221.315C177.086 221.242 176.095 219.928 176.161 218.395C176.227 216.862 177.416 215.767 178.803 215.84L187.654 216.497C189.041 216.57 190.032 217.884 189.966 219.417C189.9 220.95 188.711 222.118 187.324 221.972Z" fill="#FFB69E"/>
<path d="M277.088 188.761C276.824 188.761 276.56 188.615 276.362 188.396C275.965 187.958 275.965 187.228 276.362 186.79L286.269 175.842C286.666 175.404 287.326 175.404 287.722 175.842C288.119 176.279 288.119 177.009 287.722 177.447L277.815 188.396C277.617 188.615 277.352 188.761 277.088 188.761Z" fill="#009B62"/>
<path d="M270.02 182.046C269.426 182.046 268.964 181.535 268.964 180.878V165.404C268.964 164.747 269.426 164.236 270.02 164.236C270.615 164.236 271.077 164.747 271.077 165.404V180.878C271.077 181.535 270.615 182.046 270.02 182.046Z" fill="#009B62"/>
<path d="M297.102 196.498H283.099C282.504 196.498 282.042 195.987 282.042 195.33C282.042 194.673 282.504 194.162 283.099 194.162H297.102C297.696 194.162 298.158 194.673 298.158 195.33C298.158 195.987 297.696 196.498 297.102 196.498Z" fill="#009B62"/>
<path d="M172.99 244.526H258.462C260.839 244.526 261.566 242.409 261.566 239.781H168.697C168.697 242.409 170.612 244.526 172.99 244.526Z" fill="#6EACCE"/>
<path d="M168.036 239.781H198.354C198.354 242.409 196.175 244.526 193.466 244.526H173.585C173.585 244.526 167.97 244.526 167.904 244.526C165.13 244.526 165.262 239.781 168.036 239.781Z" fill="#6EACCE"/>
<path d="M200.271 241.168H261.634C263.483 241.168 265.002 239.708 265.332 237.738L273.589 198.542C274.051 195.987 272.268 193.578 269.89 193.578H208.528C206.678 193.578 205.159 195.038 204.829 197.009L196.572 236.205C196.11 238.76 197.893 241.168 200.271 241.168Z" fill="#E0EEF7"/>
<path d="M204.762 196.936C204.96 195.841 205.488 194.892 206.281 194.308C207.404 195.257 208.064 196.79 207.8 198.469L199.543 237.665C199.345 238.76 198.817 239.636 198.024 240.292C196.901 239.344 196.241 237.811 196.505 236.132L204.762 196.936Z" fill="#6EACCE"/>
<path d="M243.402 222.337H233.362C231.314 222.337 229.597 220.512 229.597 218.176C229.597 215.914 231.248 214.016 233.362 214.016H243.402C245.449 214.016 247.167 215.841 247.167 218.176C247.101 220.512 245.449 222.337 243.402 222.337Z" fill="white"/>
<path d="M177.217 241.095H174.179C173.585 241.095 173.122 240.584 173.122 239.927C173.122 239.27 173.585 238.76 174.179 238.76H177.217C177.812 238.76 178.274 239.27 178.274 239.927C178.274 240.584 177.812 241.095 177.217 241.095Z" fill="#6EACCE"/>
<path d="M183.096 241.095H180.058C179.463 241.095 179.001 240.584 179.001 239.927C179.001 239.27 179.463 238.76 180.058 238.76H183.096C183.691 238.76 184.153 239.27 184.153 239.927C184.153 240.584 183.691 241.095 183.096 241.095Z" fill="#6EACCE"/>
<path d="M188.975 241.095H185.936C185.342 241.095 184.879 240.584 184.879 239.927C184.879 239.27 185.342 238.76 185.936 238.76H188.975C189.569 238.76 190.032 239.27 190.032 239.927C190.098 240.584 189.569 241.095 188.975 241.095Z" fill="#6EACCE"/>
<path d="M194.919 241.095H191.881C191.286 241.095 190.824 240.584 190.824 239.927C190.824 239.27 191.286 238.76 191.881 238.76H194.919C195.514 238.76 195.976 239.27 195.976 239.927C195.976 240.584 195.514 241.095 194.919 241.095Z" fill="#6EACCE"/>
<path d="M307.406 250H49.1428C47.6897 250 46.5668 248.686 46.5668 247.153C46.5668 245.548 47.7557 244.307 49.1428 244.307H307.406C308.859 244.307 309.982 245.621 309.982 247.153C309.982 248.759 308.793 250 307.406 250Z" fill="#1B2A67"/>
<path d="M87.7829 226.716C87.7829 226.716 85.8674 210.95 82.4327 207.082" stroke="#1B2A67" stroke-width="0.8269" stroke-miterlimit="10" stroke-linecap="round"/>
<path d="M82.9611 197.666C83.8858 201.023 83.6877 204.089 82.5648 204.454C81.4419 204.819 79.7246 202.41 78.7998 199.053V198.98C78.0072 195.987 82.1024 194.6 82.9611 197.593C82.9611 197.593 82.9611 197.593 82.9611 197.666Z" fill="#FFD2D4"/>
<path d="M88.4438 205.184C85.4054 206.206 82.6312 205.987 82.301 204.746C81.9707 203.505 84.1504 201.607 87.1888 200.585H87.2549C89.963 199.71 91.218 204.235 88.5098 205.184C88.5098 205.184 88.5098 205.184 88.4438 205.184Z" fill="#FFD2D4"/>
<path d="M78.0737 208.614C81.112 207.592 83.2918 205.768 82.9615 204.454C82.6312 203.213 79.8571 202.994 76.8187 204.016H76.7526C74.0445 204.965 75.2995 209.49 78.0076 208.614C78.0076 208.687 78.0076 208.687 78.0737 208.614Z" fill="#FFD2D4"/>
<path d="M83.1594 212.483C84.0181 209.125 83.7539 206.06 82.631 205.695C81.4421 205.33 79.8568 207.812 78.9981 211.169V211.242C78.2716 214.235 82.3668 215.549 83.1594 212.556V212.483Z" fill="#FFD2D4"/>
<path d="M86.1316 211.461C83.7537 209.198 82.4327 206.498 83.2253 205.476C84.0179 204.454 86.594 205.549 89.0379 207.811L89.1039 207.884C91.2176 209.928 88.4434 213.505 86.2637 211.534C86.1316 211.534 86.1316 211.534 86.1316 211.461Z" fill="#FFD2D4"/>
<path d="M82.9988 206.953C83.802 206.685 84.2564 205.748 84.0138 204.86C83.7711 203.973 82.9233 203.471 82.1201 203.739C81.3169 204.007 80.8625 204.944 81.1051 205.831C81.3478 206.719 82.1956 207.221 82.9988 206.953Z" fill="#D15E79"/>
<path d="M87.2174 225.783C88.3914 224.137 86.1375 220.011 82.1832 216.568C78.2288 213.125 74.0715 211.669 72.8975 213.315C71.7235 214.962 73.9774 219.088 77.9317 222.531C81.886 225.973 86.0434 227.43 87.2174 225.783Z" fill="#009B62"/>
<path d="M96.0617 221.717C100.236 217.384 102.426 212.467 100.953 210.733C99.4791 208.999 94.9005 211.106 90.7259 215.439C86.5512 219.772 84.3615 224.69 85.835 226.423C87.3084 228.157 91.8871 226.05 96.0617 221.717Z" fill="#009B62"/>
<path d="M93.0007 245.256H79.3279L76.9501 226.278H95.3786L93.0007 245.256Z" fill="#1B2A67"/>
<path d="M96.1053 231.095H76.2236C75.6952 231.095 75.2328 230.585 75.2328 230.001V225.11C75.2328 224.526 75.6952 224.015 76.2236 224.015H96.1053C96.6337 224.015 97.096 224.526 97.096 225.11V230.001C97.03 230.658 96.6337 231.095 96.1053 231.095Z" fill="#1B2A67"/>
<path d="M127.811 84.3111L134.614 92.3401L186.201 68.5452L127.811 84.3111Z" fill="#009B62"/>
<path d="M130.254 57.8885L125.102 66.3555L128.603 74.6764L120.875 76.1362L114.006 92.7051L187.852 68.0343L130.254 57.8885Z" fill="#02B875"/>
<path d="M128.603 74.6764L125.102 66.3555L165.13 68.3992L128.603 74.6764Z" fill="#009B62"/>
<path d="M124.706 157.083C124.112 157.083 123.583 157.083 122.989 157.083C122.394 157.083 121.932 156.572 121.998 155.915C122.064 155.258 122.526 154.674 123.055 154.82C125.763 154.82 128.405 154.82 131.311 154.674C131.311 154.674 131.311 154.674 131.377 154.674C131.906 154.674 132.368 155.185 132.434 155.769C132.434 156.426 132.038 156.937 131.443 156.937C128.999 157.01 126.82 157.083 124.706 157.083ZM114.666 156.645H114.6C111.76 156.353 108.92 155.988 106.278 155.477C105.683 155.331 105.353 154.747 105.419 154.163C105.551 153.579 106.079 153.141 106.608 153.214C109.25 153.725 111.958 154.09 114.732 154.382C115.327 154.455 115.723 154.966 115.657 155.623C115.657 156.134 115.195 156.645 114.666 156.645ZM98.3514 153.287C98.2192 153.287 98.1532 153.287 98.0211 153.214C95.313 152.265 92.6709 151.171 90.1609 149.857C89.6325 149.565 89.4343 148.908 89.6325 148.324C89.8967 147.74 90.4912 147.521 91.0196 147.74C93.4635 148.981 96.0395 150.076 98.6156 150.952C99.144 151.171 99.4742 151.755 99.2761 152.411C99.21 152.995 98.8137 153.287 98.3514 153.287ZM83.3576 145.477C83.1594 145.477 82.9613 145.404 82.7631 145.258C80.3852 143.507 78.2055 141.609 76.0919 139.492C75.6955 139.054 75.6295 138.324 76.0258 137.886C76.4221 137.448 77.0826 137.375 77.479 137.813C79.4605 139.857 81.6402 141.682 83.886 143.361C84.3484 143.726 84.4805 144.455 84.1502 144.966C84.0181 145.331 83.6878 145.477 83.3576 145.477ZM71.138 133.142C70.8077 133.142 70.5435 132.996 70.3453 132.704C68.5619 130.295 66.9767 127.668 65.5896 124.967C65.3254 124.383 65.4575 123.726 65.9859 123.434C66.5143 123.142 67.1088 123.288 67.373 123.872C68.694 126.5 70.2793 128.981 71.9306 131.317C72.2608 131.828 72.1948 132.558 71.7985 132.923C71.6003 133.069 71.4022 133.142 71.138 133.142ZM62.9475 117.23C62.5512 117.23 62.1549 116.938 61.9567 116.5C60.966 113.507 60.1733 110.515 59.6449 107.449C59.5128 106.865 59.9091 106.208 60.4376 106.135C61.032 105.989 61.5604 106.427 61.6265 107.011C62.1549 109.931 62.8815 112.777 63.8723 115.624C64.0704 116.208 63.8062 116.865 63.2778 117.084C63.2117 117.157 63.0796 117.23 62.9475 117.23ZM59.6449 99.2742C59.1165 99.2742 58.6541 98.8363 58.5881 98.1794C58.456 96.2816 58.456 94.3109 58.456 92.3401V91.9022C58.456 90.8803 58.456 89.9314 58.522 88.9096C58.522 88.3256 58.9844 87.8147 59.5789 87.8147C59.5789 87.8147 59.5789 87.8147 59.6449 87.8147C60.2394 87.8147 60.6357 88.3986 60.6357 88.9825C60.6357 89.9314 60.5697 90.9533 60.5697 91.9022V92.3401C60.5697 94.3109 60.6357 96.2086 60.7018 98.0334C60.7678 98.6903 60.3054 99.2012 59.711 99.2742C59.711 99.2742 59.711 99.2742 59.6449 99.2742Z" fill="#009B62"/>
<path d="M68.3638 81.0996C66.7785 81.0996 65.1933 81.0996 63.6741 81.0266C63.0796 81.0266 62.6833 80.5157 62.6833 79.8587C62.6833 79.2018 63.1457 78.7639 63.7401 78.7639C66.3822 78.8369 69.1564 78.8369 71.9966 78.7639C72.6571 78.6909 73.0534 79.2748 73.0534 79.8587C73.0534 80.5157 72.5911 81.0266 72.0627 81.0266C70.8077 81.0996 69.5527 81.0996 68.3638 81.0996ZM80.3192 80.7346C79.7907 80.7346 79.3284 80.2967 79.2623 79.6398C79.2623 78.9828 79.6586 78.4719 80.2531 78.3989C82.9612 78.2529 85.7354 78.034 88.5096 77.742C89.038 77.669 89.5664 78.18 89.6325 78.7639C89.6985 79.4208 89.2362 79.9317 88.7078 80.0047C85.9336 80.2967 83.0933 80.5886 80.3192 80.7346C80.3852 80.7346 80.3852 80.7346 80.3192 80.7346ZM55.4176 80.5886H55.3515C52.4452 80.3697 49.6711 80.0047 47.029 79.5668C46.4345 79.4938 46.0382 78.9099 46.1703 78.2529C46.2364 77.596 46.7648 77.2311 47.3592 77.3041C49.9353 77.742 52.7094 78.034 55.5497 78.3259C56.1441 78.3989 56.5405 78.9099 56.4744 79.5668C56.4084 80.1507 55.946 80.5886 55.4176 80.5886ZM96.8982 79.1288C96.3698 79.1288 95.9074 78.6909 95.8414 78.107C95.7753 77.4501 96.1716 76.9391 96.7661 76.8661C99.4742 76.5012 102.182 76.1362 105.023 75.6983C105.617 75.6253 106.145 76.0632 106.212 76.6472C106.278 77.3041 105.881 77.888 105.353 77.961C102.513 78.3989 99.8045 78.8369 97.0963 79.1288C97.0303 79.1288 96.9642 79.1288 96.8982 79.1288ZM38.9706 77.961C38.9046 77.961 38.8385 77.961 38.7725 77.961C36.7909 77.4501 34.8094 76.9391 32.9599 76.2822C32.1673 75.9902 31.3747 75.7713 30.6481 75.4793C30.1197 75.2603 29.7894 74.6034 29.9876 74.0195C30.1857 73.4356 30.7802 73.0706 31.3086 73.2896C32.0352 73.5815 32.8278 73.8005 33.5544 74.0925C35.3378 74.6764 37.2533 75.2603 39.2349 75.6983C39.7633 75.8443 40.1596 76.4282 40.0275 77.0851C39.8293 77.596 39.433 77.961 38.9706 77.961ZM23.2503 72.0487C23.1182 72.0487 22.92 71.9757 22.7879 71.9028C20.1458 70.5159 17.7019 68.9101 15.4562 67.1584C14.9938 66.7934 14.8617 66.0635 15.1919 65.5526C15.5222 65.0416 16.1827 64.8957 16.6451 65.2606C18.7588 66.9394 21.1366 68.4722 23.6466 69.859C24.175 70.151 24.3732 70.8079 24.109 71.3918C23.9769 71.8298 23.6466 72.0487 23.2503 72.0487ZM58.8523 71.0269C58.2578 71.0269 57.7954 70.5159 57.7954 69.859V69.4941C57.7954 66.5744 57.6633 63.6548 57.4652 60.8082C57.3991 60.1513 57.8615 59.6403 58.3899 59.5673C58.9183 59.4943 59.4467 60.0053 59.5128 60.5892C59.7109 63.5088 59.8431 66.5014 59.8431 69.4941V69.932C59.9091 70.5159 59.4467 71.0269 58.8523 71.0269ZM9.84174 61.3191C9.57753 61.3191 9.31332 61.1731 9.04912 60.9542C7.13361 58.6185 5.41626 55.9908 4.09522 53.2901C3.83101 52.7062 4.02917 52.0493 4.49153 51.7573C5.01995 51.4654 5.61441 51.6843 5.87862 52.1953C7.13361 54.75 8.71886 57.2316 10.5683 59.4214C10.9646 59.8593 10.8986 60.5892 10.5023 61.0271C10.3702 61.2461 10.1059 61.3191 9.84174 61.3191ZM57.5312 52.7062C57.0028 52.7062 56.6065 52.3413 56.5405 51.7573C56.0781 48.6187 55.4176 45.6991 54.691 42.9255C54.5589 42.3415 54.8231 41.6846 55.4176 41.5386C55.946 41.3197 56.5405 41.6846 56.6726 42.3415C57.3991 45.1882 58.0597 48.2538 58.5881 51.4654C58.6541 52.1223 58.3239 52.7062 57.7294 52.7792C57.6633 52.7062 57.5973 52.7062 57.5312 52.7062ZM1.91551 45.4071C1.45314 45.4071 1.05683 45.0422 0.924727 44.5313C0.792623 44.0203 0.660519 43.5094 0.594467 42.9985C0.198156 41.2467 0 39.5679 0 37.8891C0 36.8672 0.0660519 35.9184 0.198156 34.9695C0.264208 34.3126 0.792623 33.9476 1.38709 34.0206C1.98156 34.0936 2.31182 34.6775 2.24577 35.3344C2.11366 36.2103 2.04761 37.0862 2.04761 37.9621C2.04761 39.4219 2.24577 40.9547 2.57603 42.4875C2.70813 42.9985 2.77418 43.5094 2.90629 43.9473C3.03839 44.5313 2.70813 45.1882 2.17971 45.3342C2.11366 45.4071 1.98156 45.4071 1.91551 45.4071ZM52.7755 35.1155C52.3792 35.1155 52.0489 34.8965 51.8508 34.4585C50.5958 31.6119 49.2087 29.0572 47.6234 26.8675C47.2932 26.3566 47.3592 25.6267 47.7556 25.2617C48.2179 24.8968 48.8784 24.9698 49.2087 25.4077C50.86 27.7434 52.3792 30.4441 53.7002 33.4367C53.9644 34.0206 53.7002 34.6775 53.2379 34.9695C53.0397 35.1155 52.9076 35.1155 52.7755 35.1155ZM4.49153 27.9624C4.29338 27.9624 4.02917 27.8894 3.89706 27.7434C3.4347 27.3785 3.36865 26.6485 3.69891 26.1376C5.35021 23.7289 7.52992 21.6122 10.172 19.7874C10.6344 19.4955 11.2949 19.6414 11.6251 20.1524C11.9554 20.6633 11.7572 21.3932 11.2949 21.7582C8.85096 23.364 6.8694 25.3347 5.35021 27.5244C5.086 27.8164 4.82179 27.9624 4.49153 27.9624ZM42.2732 21.1742C42.0751 21.1742 41.8769 21.1013 41.6788 20.9553C39.4991 19.3495 37.0551 18.1816 34.4131 17.4517C33.8846 17.3057 33.4883 16.6488 33.6865 16.0649C33.8186 15.481 34.4131 15.116 34.9415 15.262C37.7817 16.0649 40.4238 17.3057 42.8677 19.0575C43.3301 19.4225 43.4622 20.0794 43.198 20.6633C42.9338 20.9553 42.6035 21.1742 42.2732 21.1742ZM18.2964 18.2546C17.834 18.2546 17.4377 17.9627 17.3056 17.4517C17.1735 16.8678 17.4377 16.2109 18.0322 16.0649C20.6743 15.189 23.3824 14.6781 26.1566 14.4591H26.4868C27.0152 14.4591 27.5437 14.97 27.5437 15.554C27.5437 16.2109 27.0813 16.7218 26.5529 16.7218H26.3547C23.7126 16.9408 21.1366 17.4517 18.6927 18.2546C18.4945 18.2546 18.3624 18.2546 18.2964 18.2546Z" fill="#009B62"/>
<path d="M267.378 26.0647H322.73C329.665 26.0647 335.28 32.2689 335.28 39.9329V71.4649C335.28 79.1289 329.665 85.3331 322.73 85.3331H286.533L273.521 97.9605V85.2601H267.378C260.443 85.2601 254.829 79.0559 254.829 71.3919V39.8599C254.895 32.1959 260.509 26.0647 267.378 26.0647Z" fill="#009B62"/>
<path d="M275.437 45.5532H314.672C315.531 45.5532 316.257 44.7503 316.257 43.8015C316.257 42.8526 315.531 42.0497 314.672 42.0497H275.437C274.578 42.0497 273.852 42.8526 273.852 43.8015C273.852 44.7503 274.578 45.5532 275.437 45.5532Z" fill="#02B875"/>
<path d="M275.437 57.0858H314.672C315.53 57.0858 316.257 56.2829 316.257 55.3341C316.257 54.3852 315.53 53.5823 314.672 53.5823H275.437C274.578 53.5823 273.851 54.3852 273.851 55.3341C273.851 56.2829 274.578 57.0858 275.437 57.0858Z" fill="#02B875"/>
<path d="M308.925 68.6913H314.672C315.53 68.6913 316.257 67.8884 316.257 66.9395C316.257 65.9906 315.53 65.1877 314.672 65.1877H308.925C308.066 65.1877 307.34 65.9906 307.34 66.9395C307.34 67.8884 308.066 68.6913 308.925 68.6913Z" fill="#02B875"/>
<path d="M295.847 68.6913H301.593C302.452 68.6913 303.179 67.8884 303.179 66.9395C303.179 65.9906 302.452 65.1877 301.593 65.1877H295.847C294.988 65.1877 294.262 65.9906 294.262 66.9395C294.262 67.8884 294.988 68.6913 295.847 68.6913Z" fill="#02B875"/>
<path d="M275.437 68.6913H288.515C289.374 68.6913 290.1 67.8884 290.1 66.9395C290.1 65.9906 289.374 65.1877 288.515 65.1877H275.437C274.578 65.1877 273.851 65.9906 273.851 66.9395C273.851 67.8884 274.578 68.6913 275.437 68.6913Z" fill="#02B875"/>
<path d="M260.377 88.9827H218.038C213.876 88.9827 210.508 92.7052 210.508 97.3036V124.31C210.508 128.69 213.612 132.266 217.509 132.631L208.724 148.47L231.776 132.704H260.377C264.538 132.704 267.907 128.982 267.907 124.383V97.3766C267.973 92.7782 264.538 88.9827 260.377 88.9827Z" fill="#02B875"/>
<path d="M239.24 109.858C242.013 109.858 244.26 107.374 244.26 104.311C244.26 101.247 242.013 98.7634 239.24 98.7634C236.468 98.7634 234.22 101.247 234.22 104.311C234.22 107.374 236.468 109.858 239.24 109.858Z" fill="#009B62" stroke="#009B62" stroke-width="2.7611" stroke-miterlimit="10" stroke-linecap="round" stroke-linejoin="round"/>
<path d="M251.064 122.923H227.351C227.351 118.252 230.786 114.529 234.947 114.529H243.468C247.695 114.529 251.064 118.325 251.064 122.923Z" fill="#009B62" stroke="#009B62" stroke-width="2.7611" stroke-miterlimit="10" stroke-linecap="round" stroke-linejoin="round"/>
<path d="M209.252 45.1152C207.865 45.1152 206.412 44.9692 205.091 44.6772C204.563 44.5313 204.166 43.9473 204.299 43.2904C204.431 42.6335 204.959 42.2686 205.554 42.4145C207.667 42.9255 209.913 42.9985 212.027 42.6335C212.621 42.5605 213.15 42.9985 213.216 43.5824C213.282 44.2393 212.885 44.8232 212.357 44.8962C211.3 45.0422 210.309 45.1152 209.252 45.1152ZM218.632 42.4145C218.236 42.4145 217.905 42.1956 217.707 41.8306C217.443 41.2467 217.641 40.5898 218.103 40.2978C220.019 39.13 221.736 37.5972 223.123 35.7724C223.52 35.2615 224.18 35.2615 224.577 35.6264C225.039 36.0644 225.039 36.7943 224.709 37.2322C223.123 39.2759 221.208 40.9547 219.094 42.2686C219.028 42.4145 218.83 42.4145 218.632 42.4145ZM198.948 41.8306C198.75 41.8306 198.552 41.7576 198.42 41.6846C196.372 40.2248 194.589 38.473 193.07 36.2833C192.739 35.7724 192.806 35.0425 193.268 34.6775C193.73 34.3126 194.391 34.3856 194.721 34.8965C196.042 36.7943 197.693 38.473 199.543 39.7139C200.005 40.0788 200.203 40.7358 199.873 41.3197C199.609 41.6116 199.279 41.8306 198.948 41.8306ZM227.483 31.101C227.351 31.101 227.219 31.101 227.153 31.028C226.624 30.809 226.36 30.1521 226.558 29.5682C227.285 27.3055 227.681 24.9698 227.681 22.4881C227.681 21.8312 228.143 21.3202 228.738 21.3202C229.332 21.3202 229.795 21.8312 229.795 22.4881C229.795 25.1887 229.398 27.8164 228.54 30.3711C228.275 30.809 227.879 31.101 227.483 31.101ZM190.692 30.0061C190.23 30.0061 189.833 29.7142 189.701 29.2032C189.107 27.0865 188.776 24.8238 188.776 22.5611C188.776 22.1231 188.776 21.6852 188.776 21.3202C188.776 20.6633 189.305 20.2254 189.899 20.2254C190.494 20.2254 190.89 20.8093 190.89 21.4662C190.89 21.8312 190.89 22.1961 190.89 22.6341C190.89 24.6778 191.154 26.7215 191.683 28.6193C191.881 29.2032 191.551 29.8601 191.022 30.0791C190.89 30.0061 190.824 30.0061 190.692 30.0061ZM228.143 18.4736C227.681 18.4736 227.285 18.1087 227.153 17.5977C226.624 15.262 225.699 13.0723 224.51 11.0286C224.18 10.5176 224.312 9.78772 224.775 9.42277C225.237 9.05781 225.898 9.20379 226.228 9.71473C227.615 11.9774 228.606 14.3861 229.2 17.0138C229.332 17.5977 229.002 18.2546 228.474 18.4006C228.275 18.4736 228.209 18.4736 228.143 18.4736ZM191.484 15.043C191.352 15.043 191.22 15.043 191.088 14.9701C190.56 14.7511 190.296 14.0212 190.56 13.4373C191.551 10.9556 192.872 8.76585 194.589 6.7951C194.985 6.35716 195.646 6.35716 196.042 6.7951C196.438 7.23305 196.438 7.96295 196.042 8.4009C194.523 10.1527 193.334 12.1234 192.409 14.3861C192.211 14.8241 191.881 15.043 191.484 15.043ZM220.481 6.13819C220.283 6.13819 220.085 6.0652 219.887 5.91922C218.103 4.53239 216.122 3.51053 214.008 2.85361C213.48 2.70763 213.15 2.05071 213.282 1.46679C213.414 0.882861 214.008 0.517909 214.537 0.66389C216.914 1.3938 219.094 2.48866 221.076 4.09445C221.538 4.4594 221.67 5.18931 221.34 5.70024C221.142 5.99221 220.812 6.13819 220.481 6.13819ZM200.864 4.31342C200.468 4.31342 200.137 4.09445 199.939 3.65651C199.675 3.07258 199.873 2.41567 200.402 2.1237C202.581 0.955853 204.959 0.225945 207.337 0.00697302C207.865 -0.0660176 208.394 0.444918 208.46 1.02884C208.526 1.68576 208.064 2.19669 207.535 2.26968C205.355 2.48866 203.242 3.14557 201.26 4.16744C201.128 4.31342 200.996 4.31342 200.864 4.31342Z" fill="#009B62"/>
<path d="M209.253 11.6124C201.789 11.6124 195.712 16.0649 195.712 21.5392C195.712 22.999 196.769 23.9478 197.693 23.5099L201.26 21.8311C202.119 21.3932 202.515 20.0793 202.119 18.9115L201.657 17.5977C201.657 17.5977 208.196 18.9115 216.783 17.5977L216.32 19.2764C216.056 20.3713 216.386 21.5392 217.113 21.9771L220.614 24.0938C221.472 24.6048 222.463 23.9478 222.661 22.634C222.727 22.2691 222.727 21.9041 222.727 21.5392C222.859 16.0649 216.782 11.6124 209.253 11.6124Z" fill="#009B62"/>
<path d="M218.698 33.3638H199.873L202.647 23.7291C203.176 21.9043 204.695 20.6635 206.412 20.6635H212.093C213.81 20.6635 215.329 21.9043 215.858 23.7291L218.698 33.3638Z" fill="#02B875"/>
<path d="M330.524 162.63C329.137 162.63 327.684 162.484 326.363 162.192C325.834 162.046 325.438 161.462 325.57 160.805C325.702 160.222 326.23 159.784 326.825 159.93C328.939 160.441 331.184 160.514 333.298 160.149C333.893 160.076 334.421 160.514 334.487 161.097C334.553 161.754 334.157 162.338 333.628 162.411C332.572 162.557 331.515 162.63 330.524 162.63ZM339.903 160.003C339.507 160.003 339.177 159.784 338.979 159.419C338.714 158.835 338.912 158.178 339.375 157.886C341.29 156.718 343.008 155.185 344.395 153.36C344.791 152.849 345.452 152.849 345.848 153.214C346.31 153.652 346.31 154.382 345.98 154.82C344.395 156.864 342.479 158.543 340.366 159.857C340.234 159.93 340.035 160.003 339.903 160.003ZM320.154 159.346C319.956 159.346 319.757 159.273 319.625 159.2C317.578 157.74 315.794 155.988 314.275 153.798C313.945 153.287 314.011 152.558 314.473 152.193C314.936 151.828 315.596 151.901 315.926 152.412C317.247 154.309 318.899 155.988 320.748 157.229C321.211 157.594 321.409 158.251 321.078 158.835C320.814 159.2 320.484 159.346 320.154 159.346ZM348.688 148.689C348.556 148.689 348.424 148.689 348.358 148.616C347.83 148.397 347.565 147.74 347.763 147.156C348.49 144.893 348.886 142.485 348.886 140.076C348.886 139.419 349.349 138.908 349.943 138.908C350.538 138.908 351 139.419 351 140.076C351 142.777 350.604 145.404 349.745 147.959C349.547 148.397 349.151 148.689 348.688 148.689ZM311.963 147.521C311.501 147.521 311.105 147.229 310.972 146.718C310.378 144.602 310.048 142.339 310.048 140.076C310.048 139.638 310.048 139.2 310.048 138.835C310.048 138.178 310.642 137.74 311.171 137.74C311.765 137.74 312.161 138.324 312.161 138.981C312.161 139.346 312.161 139.711 312.161 140.149C312.161 142.193 312.426 144.237 312.954 146.134C313.152 146.718 312.822 147.375 312.294 147.594C312.161 147.521 312.029 147.521 311.963 147.521ZM349.349 136.062C348.886 136.062 348.49 135.697 348.358 135.186C347.83 132.85 346.905 130.66 345.716 128.617C345.386 128.106 345.518 127.376 345.98 127.011C346.442 126.646 347.103 126.792 347.433 127.303C348.82 129.492 349.811 131.974 350.406 134.602C350.538 135.186 350.207 135.843 349.679 135.989C349.547 135.989 349.415 136.062 349.349 136.062ZM312.69 132.631C312.558 132.631 312.426 132.631 312.294 132.558C311.765 132.339 311.501 131.609 311.765 131.025C312.756 128.544 314.077 126.354 315.794 124.383C316.191 123.945 316.851 123.945 317.247 124.383C317.644 124.821 317.644 125.551 317.247 125.989C315.728 127.741 314.539 129.711 313.615 131.974C313.482 132.339 313.086 132.631 312.69 132.631ZM341.753 123.726C341.555 123.726 341.356 123.653 341.158 123.507C339.375 122.12 337.393 121.099 335.28 120.442C334.751 120.296 334.421 119.639 334.553 119.055C334.685 118.471 335.28 118.106 335.808 118.252C338.186 118.982 340.366 120.077 342.347 121.682C342.81 122.047 342.942 122.777 342.611 123.288C342.347 123.507 342.083 123.726 341.753 123.726ZM322.069 121.901C321.673 121.901 321.343 121.682 321.145 121.245C320.88 120.661 321.078 120.004 321.607 119.712C323.787 118.544 326.164 117.814 328.542 117.595C329.137 117.522 329.599 118.033 329.665 118.617C329.731 119.274 329.269 119.785 328.74 119.858C326.561 120.077 324.447 120.734 322.466 121.755C322.399 121.828 322.201 121.901 322.069 121.901Z" fill="#009B62"/>
<path d="M342.413 135.988H318.304V151.097H342.413V135.988Z" fill="#02B875"/>
<path d="M339.044 134.821V132.996C339.044 131.609 340.035 130.514 341.29 130.514C342.545 130.514 343.536 131.609 343.536 132.996V136.061H339.11" fill="#009B62"/>
<path d="M339.11 132.923V148.616H322.663V132.923C322.663 131.536 323.654 130.441 324.909 130.441H341.158L340.696 130.514C339.771 130.879 339.11 131.828 339.11 132.923Z" fill="#E0EEF7"/>
<path d="M327.353 132.996H323.72V137.156H327.353V132.996Z" fill="#009B62"/>
<path d="M328.476 132.996H337.723" stroke="#009B62" stroke-width="0.6576" stroke-miterlimit="10" stroke-linecap="round" stroke-linejoin="round"/>
<path d="M328.476 134.383H337.723" stroke="#009B62" stroke-width="0.6576" stroke-miterlimit="10" stroke-linecap="round" stroke-linejoin="round"/>
<path d="M328.476 135.77H337.723" stroke="#009B62" stroke-width="0.6576" stroke-miterlimit="10" stroke-linecap="round" stroke-linejoin="round"/>
<path d="M328.542 137.156H337.789" stroke="#009B62" stroke-width="0.6576" stroke-miterlimit="10" stroke-linecap="round" stroke-linejoin="round"/>
<path d="M323.72 138.543H337.723" stroke="#009B62" stroke-width="0.6576" stroke-miterlimit="10" stroke-linecap="round" stroke-linejoin="round"/>
<path d="M323.72 139.93H337.723" stroke="#009B62" stroke-width="0.6576" stroke-miterlimit="10" stroke-linecap="round" stroke-linejoin="round"/>
<path d="M323.72 141.244H337.723" stroke="#009B62" stroke-width="0.6576" stroke-miterlimit="10" stroke-linecap="round" stroke-linejoin="round"/>
<path d="M323.72 142.631H330.523" stroke="#009B62" stroke-width="0.6576" stroke-miterlimit="10" stroke-linecap="round" stroke-linejoin="round"/>
<path d="M336.468 151.097H318.304V135.988L336.468 151.097Z" fill="#009B62"/>
<path d="M324.183 151.097H342.347V135.988L324.183 151.097Z" fill="#009B62"/>
<path d="M342.347 151.098H330.326H318.304L329.137 144.747C329.863 144.163 330.854 144.163 331.581 144.747L342.347 151.098Z" fill="#009B62"/>
</svg>
